<?xml version="1.0" encoding="utf-8"?>
<!-- Generator: Adobe Illustrator 22.1.0, SVG Export Plug-In . SVG Version: 6.00 Build 0)  -->
<svg version="1.1" id="Слой_1" xmlns="http://www.w3.org/2000/svg" xmlns:xlink="http://www.w3.org/1999/xlink" x="0px" y="0px"
	 viewBox="0 0 1496 334" style="enable-background:new 0 0 1496 334;" xml:space="preserve">
<style type="text/css">
	.st0{fill:none;stroke:#E24C5B;stroke-width:5;stroke-linejoin:round;stroke-miterlimit:10;}
</style>
<path class="st0" d="M-0.3,258.9h315.9c12.7,0,23.1-10.3,23.1-23.1V100.7c0-12.7,10.3-23.1,23.1-23.1h252.8
	c12.7,0,23.1,10.3,23.1,23.1v135.1c0,12.7,10.3,23.1,23.1,23.1h97h25h127c12.7,0,23.1-10.3,23.1-23.1v-65.1
	c0-12.7,10.3-23.1,23.1-23.1h247.8c12.7,0,23.1,10.3,23.1,23.1v65.1c0,12.7,10.3,23.1,23.1,23.1h245.9"/>
</svg>
