<?xml version="1.0" encoding="utf-8"?>
<!-- Generator: Adobe Illustrator 22.1.0, SVG Export Plug-In . SVG Version: 6.00 Build 0)  -->
<svg version="1.1" id="Слой_1" xmlns="http://www.w3.org/2000/svg" xmlns:xlink="http://www.w3.org/1999/xlink" x="0px" y="0px"
	 viewBox="0 0 325 334" style="enable-background:new 0 0 325 334;" xml:space="preserve">
<style type="text/css">
	.st0{fill:#CCCCCC;}
	.st1{fill:none;stroke:#010101;stroke-width:1.2;stroke-linecap:round;stroke-linejoin:round;stroke-miterlimit:10;}
	.st2{fill:#FFFFFF;}
	.st3{fill:none;stroke:#010101;stroke-width:1.2;stroke-miterlimit:10;}
	.st4{fill:#07AE8B;}
</style>
<g id="bus">
	<path class="st0" d="M314.7,225.6c0,12.6-8.3,22.9-18.6,22.9c-10.3,0-18.6-10.2-18.6-22.9c0-12.6,8.3-22.9,18.6-22.9
		C306.4,202.7,314.7,212.9,314.7,225.6"/>
	<ellipse class="st1" cx="296.1" cy="225.6" rx="18.6" ry="22.9"/>
	<path class="st0" d="M136.1,225.6c0,12.6-8.3,22.9-18.6,22.9c-10.3,0-18.6-10.2-18.6-22.9c0-12.6,8.3-22.9,18.6-22.9
		C127.8,202.7,136.1,212.9,136.1,225.6"/>
	<ellipse class="st1" cx="117.5" cy="225.6" rx="18.6" ry="22.9"/>
	<path class="st2" d="M293.3,147.4v10.9c0,1-0.2,1.9-0.6,2.7c-1,2-3.1,3.4-5.5,3.4h-2c-3.4,0-6.1-2.7-6.1-6.1v-10.9
		c0-1.2,0.3-2.2,0.9-3.1v0c1.1-1.8,3-3,5.2-3h2C290.5,141.3,293.3,144.1,293.3,147.4"/>
	<path class="st3" d="M293.3,147.4v10.9c0,1-0.2,1.9-0.6,2.7c-1,2-3.1,3.4-5.5,3.4h-2c-3.4,0-6.1-2.7-6.1-6.1v-10.9
		c0-1.2,0.3-2.2,0.9-3.1v0c1.1-1.8,3-3,5.2-3h2C290.5,141.3,293.3,144.1,293.3,147.4z"/>
	<path class="st4" d="M292.6,161.1c-1,2-3.1,3.4-5.5,3.4h-2c-3.4,0-6.1-2.7-6.1-6.1v-10.9c0-1.2,0.3-2.2,0.9-3.1
		C280.1,145,282.7,159.9,292.6,161.1"/>
	<path class="st2" d="M226.9,222.9c0,1.5-0.1,3-0.4,4.4h85.2c7.3,0,13.2-5.9,13.2-13.2c0-0.6,0-1.2,0-1.7c0-3.5,0-7.1,0-10.1
		c0-4.8-1.7-9.2-3.5-12.6c-2.4-4.4-5.1-7.2-5.1-7.2l-5.6-4.6l-18.9-15.2l-22.6-48.7v0h0c-0.8-3.8-1.8-7.2-3-10.2
		c-0.1-0.4-0.3-0.7-0.5-1.1C261.7,94,252,88.2,241,88.2h-0.3c0,0,0,0,0,0h-99.9v78.3l2.4-0.1c0.2,7.8,0.2,20.3,0,27.5
		c-0.2,11.1,1.8,33.4,1.8,33.4h52.1c-0.2-1.4-0.4-2.9-0.4-4.4"/>
	<path class="st3" d="M226.9,222.9c0,1.5-0.1,3-0.4,4.4h85.2c7.3,0,13.2-5.9,13.2-13.2c0-0.6,0-1.2,0-1.7c0-3.5,0-7.1,0-10.1
		c0-4.8-1.7-9.2-3.5-12.6c-2.4-4.4-5.1-7.2-5.1-7.2l-5.6-4.6l-18.9-15.2l-22.6-48.7v0h0c-0.8-3.8-1.8-7.2-3-10.2
		c-0.1-0.4-0.3-0.7-0.5-1.1C261.7,94,252,88.2,241,88.2h-0.3c0,0,0,0,0,0h-99.9v78.3l2.4-0.1c0.2,7.8,0.2,20.3,0,27.5
		c-0.2,11.1,1.8,33.4,1.8,33.4h52.1c-0.2-1.4-0.4-2.9-0.4-4.4"/>
	<path class="st2" d="M279.6,159.8h-66.8c-1.5,0-2.9-0.9-3.6-2.3l-16.5-36.8c-0.5-1.2,0.3-2.6,1.7-2.6h70.4c1.5,0,3,0.9,3.6,2.4
		l11.8,27l3,6.8C284.4,156.9,282.5,159.8,279.6,159.8"/>
	<path class="st3" d="M279.6,159.8h-66.8c-1.5,0-2.9-0.9-3.6-2.3l-16.5-36.8c-0.5-1.2,0.3-2.6,1.7-2.6h70.4c1.5,0,3,0.9,3.6,2.4
		l11.8,27l3,6.8C284.4,156.9,282.5,159.8,279.6,159.8z"/>
	<path class="st2" d="M184.9,124.8l14.2,35h-24.4c0,0-5-0.8-5.6-11.1c-0.7-10.9-0.7-29.8-0.7-29.8l10.7-0.1
		C183.2,119.5,183.8,121.8,184.9,124.8"/>
	<path class="st3" d="M184.9,124.8l14.2,35h-24.4c0,0-5-0.8-5.6-11.1c-0.7-10.9-0.7-29.8-0.7-29.8l10.7-0.1
		C183.2,119.5,183.8,121.8,184.9,124.8z"/>
	<path class="st0" d="M156,212.4h168.9c0,0.6,0,1.2,0,1.7c0,7.3-6.2,13.2-13.8,13.2H156"/>
	<path class="st1" d="M156,212.4h168.9c0,0.6,0,1.2,0,1.7c0,7.3-6.2,13.2-13.8,13.2H156"/>
	<path class="st2" d="M184.5,141.3h-2c-2.2,0-4.1,1.2-5.2,3v0c-0.6,0.9-0.9,2-0.9,3.1v10.9c0,3.4,2.8,6.1,6.1,6.1h2
		c2.4,0,4.5-1.4,5.5-3.4c0.4-0.8,0.6-1.8,0.6-2.7v-10.9C190.6,144.1,187.9,141.3,184.5,141.3"/>
	<path class="st3" d="M184.5,141.3h-2c-2.2,0-4.1,1.2-5.2,3v0c-0.6,0.9-0.9,2-0.9,3.1v10.9c0,3.4,2.8,6.1,6.1,6.1h2
		c2.4,0,4.5-1.4,5.5-3.4c0.4-0.8,0.6-1.8,0.6-2.7v-10.9C190.6,144.1,187.9,141.3,184.5,141.3z"/>
	<path class="st0" d="M268.4,114.1h-81.8c0,0-0.2-5-0.5-11.3H265c0.2,0.4,0.3,0.7,0.5,1.1C266.6,106.9,267.6,110.3,268.4,114.1"/>
	<path class="st2" d="M321.3,189.8c-0.5,0.8-1.1,1.3-1.7,1.4l-11.1,2.1c-0.9,0.2-1.7-1.4-1.4-3.1l1.1-7.5l0-0.2l0.2-1.5
		c0.2-1.3,0.8-2.3,1.5-2.6l0.6-0.2l5.6,4.6C316.2,182.6,318.9,185.4,321.3,189.8"/>
	<path class="st3" d="M321.3,189.8c-0.5,0.8-1.1,1.3-1.7,1.4l-11.1,2.1c-0.9,0.2-1.7-1.4-1.4-3.1l1.1-7.5l0-0.2l0.2-1.5
		c0.2-1.3,0.8-2.3,1.5-2.6l0.6-0.2l5.6,4.6C316.2,182.6,318.9,185.4,321.3,189.8z"/>
	<path class="st3" d="M248.6,212.4c0,1.2-0.1,2.2-0.1,3.2c-0.5,6.4-6.9,11.7-6.9,11.7H140.7V88.2h27.9c9.8,0,17.8,8,17.8,17.8v9.8
		c0,0,13,30.6,18.9,44c1.4,3.4,2.5,5.6,2.7,6.1c1.3,2.5,31.5,17.8,36.5,22.3C247.3,190.7,248.7,203.7,248.6,212.4z"/>
	<path class="st2" d="M260.9,197.3l-13.6-1.3h0l-7.2-0.7c-2.5-0.2-4.5-2.1-5-4.6l-1.6-9c0-0.1,0-0.3,0-0.4v0
		c-0.1-1.9,1.7-3.5,3.6-3.1l21.1,4.3c1.3,0.3,2.4,1.3,2.8,2.6l2.5,9.2C264,195.9,262.6,197.5,260.9,197.3"/>
	<path class="st3" d="M260.9,197.3l-13.6-1.3h0l-7.2-0.7c-2.5-0.2-4.5-2.1-5-4.6l-1.6-9c0-0.1,0-0.3,0-0.4v0
		c-0.1-1.9,1.7-3.5,3.6-3.1l21.1,4.3c1.3,0.3,2.4,1.3,2.8,2.6l2.5,9.2C264,195.9,262.6,197.5,260.9,197.3z"/>
	<path class="st2" d="M269.2,183.3h32.4c1,0,1.8,1.4,1.7,2.9l-1.1,11.2c-0.2,1.7-1.1,2.9-2.2,2.9h-26.7c-1.7,0-3.2-1.7-3.7-4.2
		l-1.9-9.6C267.2,184.9,268,183.3,269.2,183.3"/>
	<path class="st3" d="M269.2,183.3h32.4c1,0,1.8,1.4,1.7,2.9l-1.1,11.2c-0.2,1.7-1.1,2.9-2.2,2.9h-26.7c-1.7,0-3.2-1.7-3.7-4.2
		l-1.9-9.6C267.2,184.9,268,183.3,269.2,183.3z"/>
	<path class="st2" d="M156,88.2v139.2H8.2c-4.6,0-8.3-3.7-8.3-8.3V96.5c0-4.6,3.7-8.3,8.3-8.3H156z"/>
	<path class="st0" d="M-0.1,212.4v6.6c0,4.6,3.7,8.3,8.3,8.3H156v-14.9H-0.1z"/>
	<path class="st3" d="M156,88.2v139.2H8.2c-4.6,0-8.3-3.7-8.3-8.3V96.5c0-4.6,3.7-8.3,8.3-8.3H156z"/>
	<line class="st1" x1="-0.1" y1="212.4" x2="156" y2="212.4"/>
	<polygon class="st0" points="125.2,142.4 27.9,142.4 30.7,120.2 128,120.2 	"/>
	<line class="st1" x1="14" y1="162.1" x2="141.9" y2="162.1"/>
	<path class="st0" d="M229.8,225.6c0,12.6-8.3,22.9-18.6,22.9c-10.3,0-18.6-10.2-18.6-22.9c0-12.6,8.3-22.9,18.6-22.9
		C221.5,202.7,229.8,212.9,229.8,225.6"/>
	<ellipse class="st1" cx="211.2" cy="225.6" rx="18.6" ry="22.9"/>
	<path class="st0" d="M51.2,225.6c0,12.6-8.3,22.9-18.6,22.9c-10.3,0-18.6-10.2-18.6-22.9c0-12.6,8.3-22.9,18.6-22.9
		C42.9,202.7,51.2,212.9,51.2,225.6"/>
	<ellipse class="st1" cx="32.6" cy="225.6" rx="18.6" ry="22.9"/>
	<line class="st1" x1="14" y1="100.5" x2="141.9" y2="100.5"/>
</g>
</svg>
