<?xml version="1.0" encoding="utf-8"?>
<!-- Generator: Adobe Illustrator 22.1.0, SVG Export Plug-In . SVG Version: 6.00 Build 0)  -->
<svg version="1.1" id="Слой_1" xmlns="http://www.w3.org/2000/svg" xmlns:xlink="http://www.w3.org/1999/xlink" x="0px" y="0px"
	 viewBox="0 0 365 334" style="enable-background:new 0 0 365 334;" xml:space="preserve">
<style type="text/css">
	.st0{fill:#FFFFFF;}
	.st1{fill:none;stroke:#010101;stroke-width:2;stroke-linecap:round;stroke-linejoin:round;stroke-miterlimit:10;}
	.st2{fill:none;stroke:#010101;stroke-width:1.2;stroke-linecap:round;stroke-linejoin:round;stroke-miterlimit:10;}
	.st3{fill:#CCCCCC;}
</style>
<g id="user">
	<path class="st0" d="M314.3,277.1c0,0,5.7,2.9,11.6,0.6c0-12.2,5.1-96.7,5.1-96.7l7.3,96.8c0,0,7.5,1.9,12-0.7
		c0.4-18,4.2-84.6,3.7-96.1c-0.4-11.5-2-22.1-2-22.1h2l-1.7-18.9c0,0,3.7-5.1,4.3-17.2c0.6-12.1-0.6-29.1-4.2-33.7
		c0.6-4.2-0.8-11.1-1.6-13.9c-0.8-2.8,1.2-10.9,0.9-14.2c-0.3-3.3-1.9-14.6-12.3-8.7c-6.4-1.7-17.4-3.2-17.5,9.4
		c-0.5,6.2-1.1,19.3,7.3,20.5c-0.2,1.8,0.4,3,0.4,3s-11.6-0.3-14.6,6.2c-2.9,6.5-12.3,28.6-12.3,28.6l-27.8-6.7l0.7,9.1
		c0,0,14,6.7,20.3,9.1c6.3,2.4,16.2,2.9,18.9-7.6c-0.2,5.9-0.7,12.5-0.7,12.5l-1.3,2.2l-4,1.5l2.9,9.7l-0.1,59.7L314.3,277.1z"/>
	<polyline class="st1" points="269.7,289 269.7,93.8 19.1,93.8 19.1,289 	"/>
	<path class="st2" d="M241.6,98c-1.2-2.1-0.5-4.7,1.6-5.9c2.1-1.2,4.7-0.5,5.9,1.6c1.2,2.1,0.5,4.7-1.6,5.9l1.5,2.6"/>
	<polyline class="st2" points="240.6,115.9 249,102.2 265.1,101.7 	"/>
	<path class="st0" d="M324.8,277.4c-0.1,3-0.2,7.4,0.5,9.6l-1.5,2.9l-17.7,0.2l-1.4-2.6c5.6-1.6,10.7-5.5,10.6-10.3"/>
	<path class="st2" d="M324.8,277.4c-0.1,3-0.2,7.4,0.5,9.6l-1.5,2.9l-17.7,0.2l-1.4-2.6c5.6-1.6,10.7-5.5,10.6-10.3"/>
	<path class="st0" d="M305.6,287c0,0,4.5,3.6,19.2-2.2c0,0,0.3-0.3,0.5,0.1c0.3,0.4,2,3.1,0.5,5.8c0,0-0.2,1.1-2.2,1.2
		c-2,0.2-20.1,0-21.8,0c-2,0-3.7-1-3.9-2.1C297.8,288.7,305.6,287,305.6,287"/>
	<path class="st2" d="M305.6,287c0,0,4.5,3.6,19.2-2.2c0,0,0.3-0.3,0.5,0.1c0.3,0.4,2,3.1,0.5,5.8c0,0-0.2,1.1-2.2,1.2
		c-2,0.2-20.1,0-21.8,0c-2,0-3.7-1-3.9-2.1C297.8,288.7,305.6,287,305.6,287z"/>
	<path class="st0" d="M348.8,277.7c-0.1,2.9,0,7.1,0.7,9.3l-1.5,2.9l-17.7,0.2l-1.4-2.6c4.9-1.4,9.5-5.2,10.5-9.2"/>
	<path class="st2" d="M348.8,277.7c-0.1,2.9,0,7.1,0.7,9.3l-1.5,2.9l-17.7,0.2l-1.4-2.6c4.9-1.4,9.5-5.2,10.5-9.2"/>
	<path class="st0" d="M329.7,287c0,0,4.5,3.6,19.2-2.2c0,0,0.3-0.3,0.5,0.1c0.3,0.4,2,3.1,0.5,5.8c0,0-0.2,1.1-2.2,1.2
		c-2,0.2-20.1,0-21.8,0c-2,0-3.7-1-3.9-2.1C321.9,288.7,329.7,287,329.7,287"/>
	<path class="st2" d="M329.7,287c0,0,4.5,3.6,19.2-2.2c0,0,0.3-0.3,0.5,0.1c0.3,0.4,2,3.1,0.5,5.8c0,0-0.2,1.1-2.2,1.2
		c-2,0.2-20.1,0-21.8,0c-2,0-3.7-1-3.9-2.1C321.9,288.7,329.7,287,329.7,287z"/>
	<path class="st2" d="M321.8,63.8c0,0-3.3-13.3,12.4-12.9c13,0.4,16.4,18.9,5.4,27.3"/>
	<path class="st2" d="M338.4,51.9c0,0,16.8-8,12.2,17.2c-1.5,8.3,2.6,8.3,2.1,19.9"/>
	<path class="st2" d="M329.4,82.1v2.5c0,0-10.8,1.6-14,5.7c-3.2,4.1-12.9,29.6-12.9,29.6l-28.2-6.8"/>
	<path class="st2" d="M279.5,124.2c0,0,18.6,9.9,25.6,8.9c6.4-0.9,9.6-9.4,9.6-9.4"/>
	<path class="st2" d="M341.3,84.8c0,0-2.1,11.6-12.6,11c-9.4-0.6-1.2-10.7-1.2-10.7"/>
	<path class="st2" d="M314.3,105.4c0,0-1.5,10,0.3,17.4c1.2,4.8,0.1,11.7-1.4,16.1"/>
	<path class="st2" d="M352.2,140l1.8,18.7c0,0-20.8,2.2-39.7,0.1"/>
	<path class="st2" d="M351.9,158.8c0,0,2.5,10,2,24.6c-0.6,14.6-3.6,93.6-3.6,93.6s-5.7,3.2-12,0.7c-0.8-8.6-2.9-44.9-3.9-54.6
		c-0.9-9.7-3.5-44-3.5-44s-2.5,36.7-2.8,42.8c-0.3,6.1-2,55.2-2,55.2s-7.5,2.2-11.4-0.5c-0.7-11-1.3-31-2.4-53
		c-0.5-10.3-0.8-15.1-0.8-15.1"/>
	<path class="st3" d="M249.7,135c0,0,2.9,31.6,7.7,50.4c3.7,14.5,11.3,33,14.7,40.8c0.9,2,3.2,2.8,5.1,1.8l44.2-24.6
		c1.3-0.7,2-2.2,1.9-3.6c-0.9-7.8-4.5-32.7-14.6-50.4c0,0-4.1-4.7-8.3-7.6c-7-4.9-17.1-9.4-23.1-20.1l-2.1-21.7l-14.6,0.1
		c0,0,2.8,18.9-0.8,20.5c-3.6,1.6-19-8.5-19-8.5l-6.3,11.9L249.7,135z"/>
	<path class="st2" d="M249.7,135c0,0,2.9,31.6,7.7,50.4c3.7,14.5,11.3,33,14.7,40.8c0.9,2,3.2,2.8,5.1,1.8l44.2-24.6
		c1.3-0.7,2-2.2,1.9-3.6c-0.9-7.8-4.5-32.7-14.6-50.4c0,0-4.1-4.7-8.3-7.6c-7-4.9-17.1-9.4-23.1-20.1l-2.1-21.7l-14.6,0.1
		c0,0,2.8,18.9-0.8,20.5c-3.6,1.6-19-8.5-19-8.5l-6.3,11.9L249.7,135z"/>
	<path class="st0" d="M309,142c0,0-6.2-2.1-7.8-1.7c-0.8,0.2-3.7,1.2-6.2,2.1c-2,0.7-2.7,3.2-1.3,4.8l3.7,4.4c0.7,0.9,1.9,1.3,3,1
		l10.9-3.2"/>
	<path class="st2" d="M309,142c0,0-6.2-2.1-7.8-1.7c-0.8,0.2-3.7,1.2-6.2,2.1c-2,0.7-2.7,3.2-1.3,4.8l3.7,4.4c0.7,0.9,1.9,1.3,3,1
		l10.9-3.2"/>
	<path class="st2" d="M335.5,78.9c0,0-2.4,3-6.9,3c-2.5,0-6.3-3.6-6.8-10.9c-0.3-3.6,0-6.4,0-6.4s-0.1-6.4,6.2-6.4
		c7,0,8,3.3,8.4,6.3c0.5,3.5,3.1,4.5,3.1,4.5s0.7-1.9,2.4-1.1c1.7,0.8,0.1,5.1-2.3,6.9v9.9c0,0,10.9,0.2,13.8,5.9
		c3.2,6.2,3.4,25.3,2.9,33.3c-0.5,8.9-0.7,16.3-10.8,19.5c-10.2,3.2-33.8,6.7-33.8,6.7l-3-9.9l32.8-10.3l0.1-24.1"/>
	<line class="st1" x1="280.1" y1="289" x2="259.2" y2="289"/>
	<line class="st1" x1="29.5" y1="289" x2="8.6" y2="289"/>
	<path class="st2" d="M201.5,96.4c0-2.4,1.9-4.3,4.3-4.3s4.3,1.9,4.3,4.3c0,2.4-1.9,4.3-4.3,4.3v3"/>
	<polyline class="st2" points="191.7,111.4 205.9,103.7 220,111.4 	"/>
	<path class="st2" d="M159.9,96.4c0-2.4,1.9-4.3,4.3-4.3s4.3,1.9,4.3,4.3c0,2.4-1.9,4.3-4.3,4.3v3"/>
	<polyline class="st2" points="150.1,111.4 164.3,103.7 178.4,111.4 	"/>
	<path class="st2" d="M120.8,96.4c0-2.4,1.9-4.3,4.3-4.3s4.3,1.9,4.3,4.3c0,2.4-1.9,4.3-4.3,4.3v3"/>
	<polyline class="st2" points="111,111.4 125.1,103.7 139.2,111.4 	"/>
	<path class="st0" d="M188.9,116c0,0-4.9,6.9-7.1,27.2c-3.2,30.2,0.2,100.8,0.2,100.8h14.7l9.3-100.8l9.3,100.8H230
		c0,0,2.6-70.5,0.2-100.8c-1.6-21-7.1-27.2-7.1-27.2"/>
	<path class="st2" d="M188.9,116c0,0-4.9,6.9-7.1,27.2c-3.2,30.2,0.2,100.8,0.2,100.8h14.7l9.3-100.8l9.3,100.8H230
		c0,0,2.6-70.5,0.2-100.8c-1.6-21-7.1-27.2-7.1-27.2"/>
	<rect x="188.7" y="110.4" class="st0" width="34.5" height="5.6"/>
	<rect x="188.7" y="110.4" class="st2" width="34.5" height="5.6"/>
	<path class="st3" d="M147.3,116c0,0-4.9,6.9-7.1,27.2c-3.2,30.2,0.2,100.8,0.2,100.8h14.7l9.3-100.8l9.3,100.8h14.7
		c0,0,2.6-70.5,0.2-100.8c-1.6-21-7.1-27.2-7.1-27.2"/>
	<path class="st2" d="M147.3,116c0,0-4.9,6.9-7.1,27.2c-3.2,30.2,0.2,100.8,0.2,100.8h14.7l9.3-100.8l9.3,100.8h14.7
		c0,0,2.6-70.5,0.2-100.8c-1.6-21-7.1-27.2-7.1-27.2"/>
	<rect x="147.1" y="110.4" class="st3" width="34.5" height="5.6"/>
	<rect x="147.1" y="110.4" class="st2" width="34.5" height="5.6"/>
	<path class="st0" d="M145.3,111.8c0,0,9.8,2,11.8,20.8c-6,1.5-11.8,2.2-11.8,2.2V111.8z"/>
	<path class="st2" d="M145.3,111.8c0,0,9.8,2,11.8,20.8c-6,1.5-11.8,2.2-11.8,2.2V111.8z"/>
	<path class="st0" d="M105.1,111.8c0,0-9.8,2-11.8,20.8c6,1.5,11.8,2.2,11.8,2.2V111.8z"/>
	<path class="st2" d="M105.1,111.8c0,0-9.8,2-11.8,20.8c6,1.5,11.8,2.2,11.8,2.2V111.8z"/>
	<path class="st0" d="M104.9,111.8c0,0,4.4-2.7,11.3-4.2c0.9,4.3,4.5,7.6,8.9,7.6c4.4,0,8-3.2,8.9-7.6c7,1.5,11.3,4.2,11.3,4.2
		l2.2,65.5c0,0-5,2.6-22.4,2.6c-17.4,0-22.4-2.6-22.4-2.6L104.9,111.8z"/>
	<path class="st2" d="M104.9,111.8c0,0,4.4-2.7,11.3-4.2c0.9,4.3,4.5,7.6,8.9,7.6c4.4,0,8-3.2,8.9-7.6c7,1.5,11.3,4.2,11.3,4.2
		l2.2,65.5c0,0-5,2.6-22.4,2.6c-17.4,0-22.4-2.6-22.4-2.6L104.9,111.8z"/>
	<path class="st2" d="M81.4,96.4c0-2.4,1.9-4.3,4.3-4.3s4.3,1.9,4.3,4.3c0,2.4-1.9,4.3-4.3,4.3v3"/>
	<polyline class="st2" points="71.6,111.4 85.8,103.7 99.9,111.4 	"/>
	<path class="st3" d="M106,111.8c0,0,9.8,2,11.8,20.8c-6,1.5-11.8,2.2-11.8,2.2V111.8z"/>
	<path class="st2" d="M106,111.8c0,0,9.8,2,11.8,20.8c-6,1.5-11.8,2.2-11.8,2.2V111.8z"/>
	<path class="st3" d="M65.7,111.8c0,0-9.8,2-11.8,20.8c6,1.5,11.8,2.2,11.8,2.2V111.8z"/>
	<path class="st2" d="M65.7,111.8c0,0-9.8,2-11.8,20.8c6,1.5,11.8,2.2,11.8,2.2V111.8z"/>
	<path class="st3" d="M65.5,111.8c0,0,4.4-2.7,11.3-4.2c0.9,4.3,4.5,7.6,8.9,7.6c4.4,0,8-3.2,8.9-7.6c7,1.5,11.3,4.2,11.3,4.2
		l2.2,65.5c0,0-5,2.6-22.4,2.6c-17.4,0-22.4-2.6-22.4-2.6L65.5,111.8z"/>
	<path class="st2" d="M65.5,111.8c0,0,4.4-2.7,11.3-4.2c0.9,4.3,4.5,7.6,8.9,7.6c4.4,0,8-3.2,8.9-7.6c7,1.5,11.3,4.2,11.3,4.2
		l2.2,65.5c0,0-5,2.6-22.4,2.6c-17.4,0-22.4-2.6-22.4-2.6L65.5,111.8z"/>
	<path class="st0" d="M35.9,107.4c0,0,10.3,3.1,21.2,0c0.5,16.7-10.6,39.8-10.6,39.8S35.7,126.1,35.9,107.4"/>
	<path class="st2" d="M35.9,107.4c0,0,10.3,3.1,21.2,0c0.5,16.7-10.6,39.8-10.6,39.8S35.7,126.1,35.9,107.4z"/>
	<path class="st2" d="M42.1,96.4c0-2.4,1.9-4.3,4.3-4.3s4.3,1.9,4.3,4.3c0,2.4-1.9,4.3-4.3,4.3v3"/>
	<polyline class="st2" points="32.3,111.4 46.5,103.7 60.6,111.4 	"/>
	<path class="st0" d="M25.1,110c-13,9-19,52-21.2,72.3c4,4.1,9.8,1.5,9.8,1.5l12.1-44.3C25.8,139.6,27.4,119.8,25.1,110"/>
	<path class="st2" d="M25.1,110c-13,9-19,52-21.2,72.3c4,4.1,9.8,1.5,9.8,1.5l12.1-44.3C25.8,139.6,27.4,119.8,25.1,110z"/>
	<path class="st0" d="M67.9,110c13,9,19,52,21.2,72.3c-4,4.1-9.8,1.5-9.8,1.5l-12.1-44.3C67.2,139.6,65.6,119.8,67.9,110"/>
	<path class="st2" d="M67.9,110c13,9,19,52,21.2,72.3c-4,4.1-9.8,1.5-9.8,1.5l-12.1-44.3C67.2,139.6,65.6,119.8,67.9,110z"/>
	<path class="st0" d="M25.9,159.8l-0.1,7.2c0,0,6.8,2.9,20.4,2.9c13.6,0,21-2.9,21-2.9l-0.1-7.2H25.9z"/>
	<path class="st2" d="M25.9,159.8l-0.1,7.2c0,0,6.8,2.9,20.4,2.9c13.6,0,21-2.9,21-2.9l-0.1-7.2H25.9z"/>
	<path class="st0" d="M67.9,110c0,0-4-2.2-10.8-2.7c-5,13-10.6,34.8-10.6,34.8s-5.6-21.8-10.6-34.8c-6.9,0.4-10.8,2.7-10.8,2.7
		l-1.1,48.3c0,1.9,1.3,3.7,3.1,4.1c3.6,0.8,10.1,2,19.1,2c9.2,0,16-1.2,19.7-2c1.9-0.4,3.2-2.1,3.2-4.1L67.9,110z"/>
	<path class="st2" d="M67.9,110c0,0-4-2.2-10.8-2.7c-5,13-10.6,34.8-10.6,34.8s-5.6-21.8-10.6-34.8c-6.9,0.4-10.8,2.7-10.8,2.7
		l-1.1,48.3c0,1.9,1.3,3.7,3.1,4.1c3.6,0.8,10.1,2,19.1,2c9.2,0,16-1.2,19.7-2c1.9-0.4,3.2-2.1,3.2-4.1L67.9,110z"/>
	<line class="st2" x1="46.5" y1="142.1" x2="46.5" y2="164.4"/>
</g>
</svg>
